<?xml version="1.0" standalone="no"?>
<!DOCTYPE svg PUBLIC "-//W3C//DTD SVG 20010904//EN"
 "http://www.w3.org/TR/2001/REC-SVG-20010904/DTD/svg10.dtd">
<svg version="1.0" xmlns="http://www.w3.org/2000/svg"
 width="225.000000pt" height="225.000000pt" viewBox="0 0 225.000000 225.000000"
 preserveAspectRatio="xMidYMid meet">
<metadata>
Created by potrace 1.10, written by Peter Selinger 2001-2011
</metadata>
<g transform="translate(0.000000,225.000000) scale(0.100000,-0.100000)"
fill="#000000" stroke="none">
<path d="M0 1125 l0 -1125 1125 0 1125 0 0 1125 0 1125 -1125 0 -1125 0 0
-1125z m1296 496 c73 -26 154 -82 215 -149 58 -63 114 -172 106 -204 -4 -13 0
-29 9 -40 13 -14 16 -38 13 -130 -4 -110 -5 -116 -47 -199 -69 -139 -179 -235
-321 -279 -76 -24 -109 -25 -131 -5 -15 14 -18 14 -30 0 -17 -20 -55 -19 -131
5 -142 44 -251 139 -321 279 l-43 86 0 140 0 140 36 75 c38 79 101 160 124
160 7 0 32 -22 55 -50 23 -27 45 -50 49 -50 4 0 46 49 94 108 105 133 113 140
137 124 14 -9 21 -8 31 5 16 19 71 13 155 -16z"/>
<path d="M990 1485 c-58 -74 -108 -134 -111 -134 -3 -1 -27 28 -54 63 l-48 64
-35 -41 c-50 -59 -92 -155 -105 -238 -41 -268 148 -522 421 -564 l42 -7 0 60
0 59 -39 6 c-109 14 -221 99 -274 206 -30 61 -32 73 -32 166 1 56 6 113 13
129 l12 28 48 -60 c26 -34 49 -61 52 -61 3 0 23 24 45 55 21 30 44 59 50 64 7
6 9 -58 7 -201 l-3 -209 61 0 60 0 0 375 c0 206 -1 375 -2 375 -2 0 -50 -61
-108 -135z"/>
<path d="M1150 1246 l0 -376 60 0 60 0 0 305 0 305 49 -30 c57 -35 115 -96
138 -145 16 -34 18 -35 80 -35 l63 0 -15 38 c-30 69 -63 117 -122 173 -79 76
-163 118 -270 134 l-43 7 0 -376z"/>
<path d="M1300 1323 c0 -75 3 -94 12 -85 7 7 40 12 80 12 l67 0 -22 38 c-25
42 -111 132 -127 132 -6 0 -10 -36 -10 -97z"/>
<path d="M784 1205 c-14 -36 3 -189 25 -234 49 -95 151 -171 250 -187 22 -4
46 -13 52 -21 10 -11 14 -12 28 0 9 8 34 18 56 22 128 23 239 129 269 258 l6
27 -73 0 c-43 0 -78 5 -85 12 -14 14 -14 18 -12 -111 2 -117 -8 -131 -88 -131
-36 0 -61 5 -72 15 -15 14 -18 14 -30 0 -8 -10 -31 -15 -70 -15 -88 0 -90 4
-90 200 l0 163 -35 -39 -35 -39 -45 48 c-36 40 -46 46 -51 32z"/>
<path d="M1320 1160 l0 -60 91 0 92 0 -7 -42 c-10 -64 -49 -141 -96 -192 -48
-51 -146 -105 -209 -113 l-41 -6 0 -59 0 -60 43 7 c113 17 206 66 287 151 91
94 140 215 140 343 0 95 7 91 -156 91 l-144 0 0 -60z"/>
</g>
</svg>
